{"title":"18+ Fifty Shades Of Black 2016 UNCENSORED Movies BRRip XViD ☻rDX","uid":14218838,"size":739663498,"categoryP":"video","categoryS":"movies","magnet":"?xt=urn:btih:335283ae55a77c171babb5ff2f5efe58ec5fe5cf&amp;dn=18%2B+Fifty+Shades+Of+Black+2016+UNCENSORED+Movies+BRRip+XViD+%E2%98%BBrDX&amp;tr=udp%3A%2F%2Ftracker.leechers-paradise.org%3A6969&amp;tr=udp%3A%2F%2Fzer0day.ch%3A1337&amp;tr=udp%3A%2F%2Fopen.demonii.com%3A1337&amp;tr=udp%3A%2F%2Ftracker.coppersurfer.tk%3A6969&amp;tr=udp%3A%2F%2Fexodus.desync.com%3A6969","seeders":3,"leechers":5,"uploader":"basicssom","files":3,"time":1460020069,"description":"----------------------------------------------------------------\r\n18+ Fifty Shades Of Black 2016 UNCENSORED Movies BRRip XViD ESubs New Source with Sample ~ ☻rDX☻\r\n\r\nSCREEN SHOTS &amp; POSTER:\r\n  \nhttp://mobileshosting.com/2016/4/recharge/index.htm  \nhttp://mobileshosting.com/2016/4/recharge/1.html  \nhttp://mobileshosting.com/2016/4/recharge/2.html  \nhttp://mobileshosting.com/2016/4/recharge/3.html  \nhttp://mobileshosting.com/2016/4/recharge/4.html  \nhttp://mobileshosting.com/2016/4/recharge/5.html  \nhttp://mobileshosting.com/2016/4/recharge/6.html  \nhttp://mobileshosting.com/2016/4/recharge/7.html  \nhttp://mobileshosting.com/2016/4/recharge/8.html  \nhttp://mobileshosting.com/2016/4/recharge/9.html  \nhttp://mobileshosting.com/2016/4/recharge/10.html\r\n\r\nFormat                                   : Matroska\r\nFormat version                           : Version 4 / Version 2\r\nFile size                                : 693 MiB\r\nDuration                                 : 1h 31mn\r\nOverall bit rate                         : 1 057 Kbps\r\nMovie name                               : 18+ Fifty Shades Of Black 2016 UNCENSORED Movies BRRip XViD AAC New Source ☻rDX☻\r\n\r\nVideo\r\nID                                       : 1\r\nFormat                                   : MPEG-4 Visual\r\nFormat profile                           : Advanced   \r\nFormat settings, BVOP                    : Yes\r\nFormat settings, QPel                    : No\r\nFormat settings, GMC                     : No warppoints\r\nFormat settings, Matrix                  : Default (H.263)\r\nCodec ID                                 : V_MS/VFW/FOURCC / XVID\r\nCodec ID/Hint                            : XviD\r\nDuration                                 : 1h 31mn\r\nBit rate                                 : 908 Kbps\r\nWidth                                    : 640 pixels\r\nHeight                                   : 272 pixels\r\nDisplay aspect ratio                     : 2.35:1\r\nFrame rate mode                          : Constant\r\nFrame rate                               : 23.976 fps\r\nColor space                              : YUV\r\nChroma subsampling                       : 4:2:0\r\nBit depth                                : 8 bits\r\nScan type                                : Progressive\r\nCompression mode                         : Lossy\r\nBits/(Pixel*Frame)                       : 0.218\r\nStream size                              : 595 MiB (86%)\r\nTitle                                    : ☻rDX☻\r\nWriting library                          : XviD 65\r\nDefault                                  : Yes\r\nForced                                   : No\r\n\r\nAudio\r\nID                                       : 2\r\nFormat                                   : MPEG Audio\r\nFormat version                           : Version 1\r\nFormat profile                           : Layer 3\r\nMode                                     : Joint stereo\r\nCodec ID                                 : A_MPEG/L3\r\nCodec ID/Hint                            : MP3\r\nDuration                                 : 1h 31mn\r\nBit rate mode                            : Constant\r\nBit rate                                 : 128 Kbps\r\nChannel(s)                               : 2 channels\r\nSampling rate                            : 48.0 KHz\r\nCompression mode                         : Lossy\r\nStream size                              : 84.0 MiB (12%)\r\nTitle                                    : ☻rDX☻\r\nWriting library                          : LAME3.98\r\nDefault                                  : Yes\r\nForced                                   : No\r\n\r\nIMDB \nhttp://www.imdb.com/title/tt4667094/","torrent":{"xt":"urn:btih:335283ae55a77c171babb5ff2f5efe58ec5fe5cf","amp;dn":"18%2B+Fifty+Shades+Of+Black+2016+UNCENSORED+Movies+BRRip+XViD+%E2%98%BBrDX","amp;tr":["udp%3A%2F%2Ftracker.leechers-paradise.org%3A6969","udp%3A%2F%2Fzer0day.ch%3A1337","udp%3A%2F%2Fopen.demonii.com%3A1337","udp%3A%2F%2Ftracker.coppersurfer.tk%3A6969","udp%3A%2F%2Fexodus.desync.com%3A6969"],"infoHash":"335283ae55a77c171babb5ff2f5efe58ec5fe5cf","infoHashBuffer":{"type":"Buffer","data":[51,82,131,174,85,167,124,23,27,171,181,255,47,94,254,88,236,95,229,207]},"announce":[],"urlList":[]}}